<svg width="41" height="44" viewBox="0 0 41 44" fill="none" xmlns="http://www.w3.org/2000/svg">
<path fill-rule="evenodd" clip-rule="evenodd" d="M9.02665 20.4102H32.1016V13.3704H24.7502C23.9784 13.3704 22.9043 12.9515 22.3958 12.4395C21.8872 11.9274 21.5777 11.0036 21.5777 10.2301V2.73568H2.8987C2.83468 2.73568 2.78489 2.7679 2.75288 2.80013C2.69953 2.83594 2.68531 2.88249 2.68531 2.95052V41.0674C2.68531 41.1175 2.71732 41.182 2.74932 41.2142C2.78133 41.2643 2.84891 41.2786 2.89514 41.2786C10.997 41.2786 23.5552 41.2786 31.8846 41.2786C31.9487 41.2786 31.9451 41.2464 31.9807 41.2142C32.0305 41.182 32.098 41.1139 32.098 41.0674V37.0713H9.02665C7.55423 37.0713 6.33789 35.8538 6.33789 34.3643V23.1136C6.33789 21.6276 7.54712 20.4102 9.02665 20.4102ZM10.492 24.1341H15.1831C16.2038 24.1341 16.9684 24.3776 17.4806 24.8682C17.9892 25.3587 18.2417 26.0534 18.2417 26.9593C18.2417 27.8867 17.9643 28.6136 17.4095 29.1364C16.8546 29.6592 16.0082 29.9206 14.8701 29.9206H13.323V33.3187H10.492V24.1341ZM13.3194 28.0622H14.0129C14.5607 28.0622 14.9448 27.9655 15.1653 27.7757C15.3858 27.5859 15.496 27.3424 15.496 27.0452C15.496 26.7552 15.4 26.5117 15.2079 26.3112C15.0159 26.1107 14.6567 26.0104 14.1232 26.0104H13.3159V28.0622H13.3194ZM19.5576 24.1341H23.7472C24.5724 24.1341 25.241 24.2487 25.7496 24.4707C26.2582 24.6963 26.6778 25.0186 27.0122 25.4411C27.3429 25.8636 27.5848 26.3542 27.7306 26.9128C27.88 27.4714 27.9546 28.0658 27.9546 28.6924C27.9546 29.6735 27.8444 30.4362 27.6203 30.9769C27.3998 31.5176 27.0904 31.9723 26.6956 32.3376C26.3008 32.7028 25.8776 32.9463 25.4259 33.068C24.8071 33.2363 24.2487 33.3187 23.7472 33.3187H19.5576V24.1341ZM22.3709 26.2145V31.2311H23.0644C23.6548 31.2311 24.0744 31.1631 24.327 31.0342C24.5759 30.9017 24.7715 30.6725 24.9138 30.3467C25.0561 30.0173 25.1272 29.4873 25.1272 28.7533C25.1272 27.7793 24.9707 27.1169 24.6542 26.7552C24.3376 26.3971 23.8148 26.2181 23.0822 26.2181H22.3709V26.2145ZM29.2528 24.1341H36.2236V26.1107H32.0838V27.7148H35.6261V29.5768H32.0838V33.3223H29.2564V24.1341H29.2528ZM34.7797 20.4102H38.3113C39.7909 20.4102 41.0001 21.6312 41.0001 23.1172V34.3678C41.0001 35.8538 39.7873 37.0749 38.3113 37.0749H34.7797V41.9268C34.7797 42.5033 34.5485 43.0153 34.1751 43.3949C33.7981 43.7744 33.2895 44.0036 32.7169 44.0036C22.2464 44.0036 12.5903 44.0036 2.06647 44.0036C1.49386 44.0036 0.985272 43.7744 0.608277 43.3949C0.231282 43.0153 0.00366211 42.5033 0.00366211 41.9268V2.09473C0.00366211 1.51823 0.234838 1.00618 0.608277 0.626628C0.985272 0.24707 1.50809 0.0179036 2.06647 0.0179036H22.9506C22.9968 0 23.0466 0 23.0964 0C23.324 0 23.5552 0.10026 23.7188 0.24707H23.7508C23.7828 0.264974 23.8006 0.279297 23.8326 0.311523L34.4987 11.1826C34.6801 11.3652 34.8117 11.6123 34.8117 11.8916C34.8117 11.974 34.7939 12.0384 34.7797 12.1243V20.4102ZM24.014 10.0153V3.20117L31.6357 10.9714H24.9636C24.7004 10.9714 24.4728 10.8568 24.2914 10.6921C24.1278 10.5273 24.014 10.2803 24.014 10.0153Z" fill="#76BC21"/>
</svg>
