<svg width="36" height="47" viewBox="0 0 36 47" fill="none" xmlns="http://www.w3.org/2000/svg">
<path fill-rule="evenodd" clip-rule="evenodd" d="M1.08328 21.433H4.43913V21.0219V14.1968C4.43913 10.2935 6.00375 6.74439 8.52129 4.17293V4.16949C11.04 1.59765 14.5164 0 18.3416 0C22.1638 0 25.6395 1.59765 28.1582 4.16949L28.1619 4.17293C30.6795 6.74439 32.2441 10.2935 32.2441 14.1968V21.0219V21.433H34.9171C35.5127 21.433 36.0004 21.931 36.0004 22.5388V45.8942C36.0004 46.502 35.5127 47 34.9171 47H1.08328C0.487701 47 0 46.502 0 45.8942V22.5388C0 21.931 0.487701 21.433 1.08328 21.433ZM9.84055 21.433H26.8416V21.0219V14.118C26.8416 11.7313 25.8849 9.55988 24.3461 7.98671L24.3442 7.98824C22.8043 6.41469 20.6782 5.43744 18.3416 5.43744C16.0039 5.43744 13.8778 6.41431 12.336 7.98671C10.7969 9.55988 9.84055 11.7313 9.84055 14.118V21.0223V21.433ZM18.4102 34.2127L20.1261 42.2981L15.4225 42.3184L16.8028 34.1243C15.5177 33.7036 14.5861 32.4739 14.5861 31.022C14.5861 29.2239 16.0132 27.7666 17.7749 27.7666C19.5346 27.7666 20.9629 29.2239 20.9629 31.022C20.9629 32.5978 19.8661 33.9124 18.4102 34.2127Z" fill="#76BC21"/>
</svg>
