<svg width="275" height="113" viewBox="0 0 275 113" fill="none" xmlns="http://www.w3.org/2000/svg">
<path d="M137.607 36.5349C137.04 36.5347 136.476 36.4638 135.927 36.3237L0.516937 0.786743V71.6997C0.519375 73.1701 1.00783 74.5984 1.90626 75.7623C2.80468 76.9263 4.06268 77.7606 5.48447 78.1354L135.937 112.244C136.483 112.385 137.044 112.456 137.607 112.456C138.173 112.455 138.737 112.384 139.286 112.244L269.689 78.2561C271.121 77.8946 272.392 77.0671 273.302 75.9038C274.213 74.7405 274.71 73.3075 274.716 71.8305V1.03814L139.336 36.2332C138.791 36.3726 138.23 36.4436 137.667 36.4444" fill="#76BC21"/>
<path d="M104.835 65.7669C104.123 66.473 103.163 66.8735 102.16 66.883C101.583 66.9494 100.999 66.8936 100.445 66.719C99.8913 66.5444 99.3805 66.2551 98.946 65.87C98.5115 65.4848 98.163 65.0123 97.9233 64.4834C97.6836 63.9546 97.558 63.3811 97.5547 62.8004C97.4767 62.2198 97.5265 61.6292 97.7005 61.0699C97.8745 60.5105 98.1686 59.9959 98.5623 59.562C98.9559 59.1282 99.4395 58.7856 99.9793 58.5581C100.519 58.3306 101.102 58.2238 101.688 58.2452C102.617 58.1592 103.545 58.4208 104.292 58.9792L103.518 60.4574C102.997 60.1458 102.394 59.9987 101.788 60.0351C101.463 60.0457 101.144 60.1249 100.852 60.2676C100.56 60.4103 100.301 60.6133 100.093 60.8631C99.8854 61.1129 99.7327 61.404 99.6452 61.7171C99.5577 62.0302 99.5375 62.3583 99.586 62.6797C99.5885 63.0168 99.6613 63.3497 99.7998 63.657C99.9382 63.9643 100.139 64.2394 100.39 64.4646C100.641 64.6899 100.936 64.8603 101.256 64.9651C101.577 65.0698 101.915 65.1066 102.251 65.073C102.903 65.0315 103.526 64.7852 104.031 64.3691L104.835 65.7669Z" fill="white"/>
<path d="M106.675 58.1446L113.594 57.8731L113.664 59.663L111.16 59.7636L111.411 66.33L109.501 66.4004L109.25 59.834L106.746 59.9346L106.675 58.1446Z" fill="white"/>
<path d="M116.671 57.8128C117.133 57.8128 118.29 57.7022 119.195 57.6821C121.206 57.6318 122.03 58.5368 122.05 59.6932C122.086 60.0594 122.021 60.4284 121.861 60.76C121.701 61.0915 121.454 61.373 121.145 61.5736C121.535 61.7122 121.869 61.9733 122.097 62.3178C122.326 62.6622 122.436 63.0715 122.412 63.4842C122.412 65.2339 121.115 66.0987 119.295 66.1389C118.501 66.1389 117.385 66.1389 116.892 66.1389L116.671 57.8128ZM118.621 59.5323V61.0507H119.255C119.748 61.0507 120.14 60.8295 120.12 60.2261C120.11 60.1151 120.078 60.0073 120.025 59.9093C119.972 59.8113 119.899 59.7252 119.811 59.6564C119.724 59.5876 119.623 59.5375 119.515 59.5093C119.407 59.481 119.295 59.4752 119.185 59.4921C118.985 59.4957 118.787 59.5159 118.591 59.5524M118.662 62.7401V64.3088C118.873 64.3559 119.089 64.3729 119.305 64.3591C120.049 64.3591 120.411 64.0172 120.401 63.454C120.391 62.8909 119.989 62.7099 119.396 62.72L118.662 62.7401Z" fill="white"/>
<path d="M129.773 57.4206C130.356 57.3766 130.941 57.4557 131.491 57.6528C132.041 57.8498 132.544 58.1605 132.966 58.5646C133.388 58.9687 133.72 59.457 133.941 59.998C134.162 60.5389 134.267 61.1203 134.248 61.7043C134.265 62.2855 134.162 62.8639 133.947 63.4037C133.731 63.9436 133.406 64.4333 132.993 64.8425C132.58 65.2517 132.088 65.5717 131.546 65.7826C131.004 65.9935 130.425 66.0908 129.844 66.0685C129.26 66.1111 128.675 66.0306 128.125 65.8324C127.575 65.6341 127.072 65.3224 126.651 64.9176C126.229 64.5128 125.897 64.0238 125.676 63.4824C125.455 62.9409 125.35 62.3592 125.369 61.7747C125.35 61.1937 125.452 60.615 125.667 60.075C125.883 59.535 126.207 59.0453 126.621 58.6366C127.034 58.2278 127.528 57.9088 128.07 57.6996C128.613 57.4904 129.192 57.3954 129.773 57.4206ZM129.824 64.2786C130.155 64.2903 130.485 64.231 130.792 64.1045C131.098 63.978 131.374 63.7874 131.601 63.5455C131.827 63.3035 132 63.0158 132.106 62.7017C132.212 62.3876 132.25 62.0544 132.217 61.7245C132.238 61.3951 132.192 61.0649 132.08 60.7542C131.969 60.4435 131.795 60.159 131.569 59.9182C131.343 59.6774 131.071 59.4855 130.768 59.3543C130.465 59.2231 130.139 59.1554 129.808 59.1554C129.478 59.1554 129.152 59.2231 128.849 59.3543C128.546 59.4855 128.273 59.6774 128.048 59.9182C127.822 60.159 127.648 60.4435 127.537 60.7542C127.425 61.0649 127.379 61.3951 127.4 61.7245C127.391 62.0495 127.446 62.3732 127.564 62.6765C127.681 62.9798 127.858 63.2567 128.083 63.4908C128.309 63.725 128.579 63.9117 128.878 64.04C129.177 64.1684 129.498 64.2359 129.824 64.2384" fill="white"/>
<path d="M137.607 65.9076L137.677 57.5413C138.14 57.5413 139.588 57.5413 140.231 57.5413C142.775 57.5413 143.6 58.8988 143.59 60.3468C143.579 60.7376 143.488 61.1221 143.323 61.4765C143.158 61.831 142.923 62.148 142.631 62.4079C142.339 62.6679 141.997 62.8654 141.625 62.9882C141.254 63.111 140.862 63.1567 140.473 63.1222C140.161 63.1398 139.849 63.1398 139.537 63.1222V65.9579L137.607 65.9076ZM139.568 59.3513V61.2619C139.854 61.3053 140.143 61.3288 140.432 61.3323C140.575 61.351 140.72 61.3389 140.857 61.2968C140.995 61.2547 141.122 61.1836 141.229 61.0883C141.337 60.993 141.423 60.8757 141.482 60.7443C141.54 60.6129 141.57 60.4705 141.569 60.3267C141.569 59.5826 141.096 59.3211 140.422 59.3211C140.171 59.3211 139.98 59.3211 139.578 59.3211" fill="white"/>
<path d="M147.039 57.6519L151.996 57.7625L151.956 59.5524L148.909 59.482L148.879 60.9501L151.564 61.0205L151.524 62.8105L148.839 62.7501L148.799 64.2585L151.966 64.3389L151.926 66.1289L146.848 66.0082L147.039 57.6519Z" fill="white"/>
<path d="M160.564 63.0518L157.517 62.9312L157.386 66.2998L155.476 66.2294L155.797 57.8731L157.708 57.9435L157.587 61.1412L160.624 61.2619L160.745 58.0642L162.655 58.1346L162.344 66.4909L160.433 66.4104L160.564 63.0518Z" fill="white"/>
<path d="M170.559 58.396C171.144 58.3906 171.723 58.508 172.259 58.7405C172.795 58.9731 173.276 59.3156 173.671 59.746C174.067 60.1764 174.367 60.685 174.553 61.2388C174.74 61.7927 174.807 62.3795 174.752 62.9613C174.726 63.539 174.581 64.1051 174.327 64.6248C174.074 65.1446 173.716 65.607 173.278 65.9836C172.839 66.3603 172.327 66.6433 171.775 66.8153C171.223 66.9873 170.642 67.0445 170.067 66.9836C169.482 66.989 168.903 66.8716 168.367 66.6391C167.831 66.4065 167.35 66.064 166.955 65.6336C166.559 65.2032 166.259 64.6946 166.072 64.1408C165.886 63.5869 165.818 63.0001 165.873 62.4183C165.9 61.8406 166.045 61.2745 166.299 60.7548C166.552 60.235 166.909 59.7726 167.348 59.3959C167.787 59.0193 168.298 58.7363 168.85 58.5643C169.403 58.3923 169.984 58.3351 170.559 58.396ZM170.167 65.2339C170.496 65.2687 170.829 65.2323 171.144 65.1272C171.458 65.0221 171.746 64.8508 171.988 64.6249C172.23 64.3989 172.421 64.1236 172.547 63.8175C172.674 63.5114 172.733 63.1817 172.721 62.8507C172.75 62.5286 172.713 62.2041 172.614 61.8964C172.514 61.5887 172.354 61.3042 172.142 61.0597C171.931 60.8152 171.672 60.6156 171.382 60.473C171.092 60.3303 170.776 60.2475 170.453 60.2293C170.13 60.2111 169.807 60.2579 169.503 60.3671C169.198 60.4762 168.919 60.6454 168.681 60.8646C168.443 61.0838 168.252 61.3485 168.119 61.6431C167.985 61.9376 167.913 62.2559 167.905 62.5792C167.876 62.9027 167.912 63.2287 168.01 63.5381C168.109 63.8475 168.268 64.1342 168.479 64.3814C168.689 64.6285 168.947 64.8313 169.237 64.9776C169.527 65.124 169.843 65.2111 170.167 65.2339Z" fill="white"/>
<path d="M78.1673 81.2024L79.0823 79.8147C79.3372 80.078 79.6417 80.2882 79.9783 80.4331C80.3148 80.5781 80.6768 80.655 81.0432 80.6594C81.556 80.6594 82.1895 80.3577 82.1292 79.6538C82.1292 79.1711 81.6666 78.8494 80.7616 78.9298L79.9974 78.9901L79.8466 77.2103L80.5605 77.1499C81.1035 77.1499 81.5661 76.8181 81.5661 76.2952C81.5661 75.7723 81.1136 75.5511 80.5605 75.6014C80.2609 75.6352 79.975 75.7454 79.7303 75.9215C79.4855 76.0976 79.2901 76.3336 79.1628 76.6069L77.9561 75.4203C78.2449 74.9563 78.6398 74.5674 79.1084 74.286C79.5769 74.0045 80.1057 73.8384 80.651 73.8014C80.9756 73.7327 81.3112 73.7351 81.6348 73.8082C81.9584 73.8813 82.2624 74.0234 82.5259 74.2249C82.7895 74.4264 83.0064 74.6825 83.1618 74.9756C83.3172 75.2687 83.4075 75.5919 83.4264 75.9231C83.447 76.2836 83.3757 76.6435 83.2191 76.9688C83.0626 77.2942 82.826 77.5745 82.5314 77.7835C82.968 77.8621 83.3625 78.0934 83.6443 78.436C83.9261 78.7786 84.077 79.2102 84.07 79.6538C84.2107 81.1823 82.7929 82.2583 81.3046 82.389C80.7223 82.473 80.1281 82.403 79.5812 82.186C79.0342 81.969 78.5537 81.6126 78.1874 81.1521" fill="white"/>
<path d="M89.6107 73.2383L91.3201 73.1176L95.3424 81.2124L93.3313 81.3532L92.5168 79.6538L89.2185 79.8851L88.6453 81.6851L86.7247 81.8258L89.6107 73.2383ZM89.8118 78.0549L91.6822 77.9142L90.5861 75.6215L89.8118 78.0549Z" fill="white"/>
<path d="M106.907 74.0327L103.98 74.1735L104.282 80.7298L102.371 80.8203L101.989 72.464L108.727 72.1623L109.119 80.5085L107.208 80.5991L106.907 74.0327Z" fill="white"/>
<path d="M113.01 80.3678L112.769 72.0115L115.323 71.9109C117.867 71.8304 118.742 73.1377 118.782 74.5757C118.788 74.9684 118.714 75.3582 118.563 75.7209C118.412 76.0836 118.188 76.4113 117.905 76.6838C117.622 76.9564 117.286 77.1678 116.918 77.3051C116.55 77.4424 116.158 77.5025 115.766 77.4818C115.585 77.4818 115.132 77.4818 114.83 77.4818L114.911 80.3175L113.01 80.3678ZM114.73 73.741L114.79 75.6516C115.078 75.6667 115.367 75.6667 115.655 75.6516C115.8 75.665 115.946 75.6469 116.083 75.5985C116.22 75.5501 116.344 75.4725 116.449 75.3712C116.553 75.2699 116.634 75.1473 116.686 75.0116C116.738 74.876 116.76 74.7307 116.751 74.5857C116.751 73.8517 116.248 73.6304 115.565 73.6505L114.73 73.7008" fill="white"/>
<path d="M123.76 71.7299H125.469L129.079 80.0359H127.068L126.344 78.2862L123.036 78.3466L122.372 80.1063H120.452L123.76 71.7299ZM123.7 76.5365H125.57L124.564 74.1936L123.7 76.5365Z" fill="white"/>
<path d="M131.895 71.6696C132.368 71.6696 133.524 71.5992 134.429 71.5992C136.44 71.5992 137.235 72.5142 137.235 73.6706C137.262 74.0375 137.189 74.405 137.022 74.733C136.855 75.061 136.602 75.337 136.289 75.531C136.666 75.6814 136.984 75.9475 137.2 76.291C137.415 76.6344 137.515 77.0373 137.486 77.4415C137.486 79.1912 136.128 80.0158 134.308 80.0259C133.514 80.0259 132.398 80.0259 131.915 79.9555L131.895 71.6696ZM133.816 73.4394V74.9578H134.479C134.962 74.9578 135.364 74.7466 135.364 74.1433C135.356 74.032 135.324 73.9237 135.273 73.8248C135.221 73.7259 135.15 73.6386 135.063 73.5681C134.977 73.4976 134.877 73.4454 134.769 73.4146C134.662 73.3838 134.55 73.3751 134.439 73.3891C134.242 73.3729 134.043 73.3729 133.846 73.3891M133.846 76.5768V78.1354C134.054 78.1978 134.272 78.2216 134.489 78.2058C135.234 78.2058 135.606 77.884 135.606 77.3209C135.606 76.7578 135.203 76.5768 134.6 76.5768H133.846Z" fill="white"/>
<path d="M141.046 80.0259L141.176 71.6595L143.087 71.6897L143.007 76.8885L146.788 71.75L148.457 71.7802L148.326 80.1365L146.415 80.1063L146.496 74.9176L142.715 80.046L141.046 80.0259Z" fill="white"/>
<path d="M157.145 73.8215L155.305 73.7612L155.073 75.3298C154.43 79.7242 153.344 80.589 151.403 80.2069L151.504 78.2963C152.187 78.4371 152.911 78.1957 153.394 73.5801L153.565 71.9109L159.106 72.0919L158.834 80.4482L156.924 80.3879L157.145 73.8215Z" fill="white"/>
<path d="M165.552 72.3735L167.261 72.464L170.278 80.9812L168.267 80.8806L167.653 79.0907L164.355 78.9298L163.571 80.6493L161.65 80.5588L165.552 72.3735ZM165.169 77.1801L167.04 77.2706L166.225 74.8673L165.169 77.1801Z" fill="white"/>
<path d="M173.717 72.8059L175.637 72.9466L177.97 76.6371L180.645 73.2885L182.445 73.4092L181.862 81.7555L179.961 81.6247L180.323 76.3053L177.779 79.4024L177.498 79.3823L175.416 76.0036L175.044 81.2828L173.144 81.1521L173.717 72.8059Z" fill="white"/>
<path d="M185.743 82.0672L186.498 73.741L188.398 73.912L187.936 79.0907L192.089 74.2438L193.758 74.3947L193.004 82.7208L191.103 82.5499L191.566 77.3812L187.413 82.218L185.743 82.0672Z" fill="white"/>
</svg>
