<svg width="303" height="84" viewBox="0 0 303 84" fill="none" xmlns="http://www.w3.org/2000/svg">
<path d="M294.931 39.933L298.47 30.7421C299.164 28.9464 299.164 26.9568 298.47 25.1611C298.893 24.7086 299.315 24.226 299.727 23.693C301.067 22.0779 302.032 20.1862 302.554 18.1537C303.076 16.1212 303.141 13.9984 302.744 11.9379C302.367 10.4397 301.548 9.08981 300.393 8.0639C299.238 7.03799 297.8 6.38362 296.268 6.18599C295.935 6.14471 295.599 6.12455 295.263 6.12565C293.884 6.13056 292.531 6.50661 291.348 7.21435C290.164 7.92208 289.193 8.9354 288.535 10.1479C288.119 10.7999 287.558 11.347 286.896 11.7468C285.91 10.829 284.7 10.1873 283.387 9.8865C282.011 9.59708 280.609 9.45216 279.204 9.4541C273.221 9.4541 268.484 12.3401 266.523 17.1769C266.003 18.4552 265.723 19.819 265.699 21.1992L265.035 21.2595H264.955C263.836 20.6198 262.573 20.2739 261.284 20.254C261.053 20.254 260.822 20.254 260.601 20.254L250.283 21.1791L249.771 21.2394C248.605 20.5798 247.289 20.2334 245.949 20.2338H245.266L234.677 21.2394C233.529 20.5894 232.235 20.2433 230.916 20.2338H230.182L220.519 21.159C220.18 21.1922 219.845 21.2459 219.513 21.3199C218.302 20.5822 216.909 20.1958 215.491 20.2037H214.807L207.114 20.8975C209.035 16.4931 208.12 12.3904 205.978 9.92672C205.256 9.10393 204.367 8.44434 203.37 7.99181C202.373 7.53929 201.291 7.30419 200.196 7.30218C199.89 7.30257 199.584 7.32273 199.281 7.36251C198.045 7.50569 196.862 7.94646 195.834 8.64702C194.806 9.34757 193.963 10.287 193.378 11.3848C193.324 11.4911 193.26 11.5921 193.187 11.6865C192.336 11.0432 191.36 10.5843 190.321 10.339C189.002 10.038 187.652 9.88959 186.299 9.89655C180.567 9.89655 176.062 12.7423 174.232 17.5087C173.803 18.6423 173.559 19.8374 173.508 21.0484H173.146C172.543 21.1005 171.949 21.2254 171.376 21.4204C168.711 20.1866 165.78 19.6371 162.849 19.8216C160.089 19.83 157.357 20.373 154.804 21.4204C153.769 21.8349 152.762 22.3152 151.788 22.8584C151.08 22.0668 150.214 21.4323 149.246 20.9959C148.277 20.5594 147.228 20.3307 146.167 20.3243H137.227C136.796 20.3258 136.365 20.3628 135.94 20.435L128.73 21.6618C128.988 19.9862 128.866 18.274 128.374 16.6518C127.881 15.0296 127.03 13.5389 125.884 12.2898C124.74 11.0561 123.349 10.0766 121.802 9.41483C120.255 8.75309 118.587 8.42387 116.904 8.44853C113.749 8.41929 110.684 9.50952 108.256 11.5256C105.81 13.5088 104.169 16.3147 103.641 19.4193C103.475 20.4809 103.455 21.56 103.581 22.6271C103.248 22.867 102.936 23.1326 102.645 23.4215C101.956 22.7875 101.205 22.2249 100.403 21.7422C96.8331 19.6406 92.308 18.5545 86.7774 18.5445C85.8824 18.5445 85.0176 18.5445 84.1729 18.6048C84.0293 14.7308 82.7106 10.9922 80.392 7.88541C78.1383 4.95176 74.8381 3.0026 71.181 2.44526C69.7494 1.22623 67.9328 0.552995 66.0525 0.544727H65.952C59.8884 0.515642 53.9776 2.4448 49.0986 6.04521C48.9237 5.75623 48.7323 5.47756 48.5254 5.21058C47.8058 4.29904 46.8892 3.56226 45.8443 3.05547C44.7994 2.54869 43.6533 2.28506 42.492 2.28437C42.0878 2.28786 41.6844 2.32148 41.2853 2.38493C36.2574 3.17933 28.8463 4.39607 28.1123 4.44635C26.588 4.58536 25.14 5.1765 23.9539 6.14398C22.7678 7.11147 21.8978 8.41118 21.4554 9.87644C21.1493 10.8846 21.0538 11.9449 21.1749 12.9915C21.296 14.0381 21.6311 15.0486 22.1593 15.9602L20.852 19.4093C15.7437 32.8236 7.19637 55.2881 6.06007 57.973C5.32422 59.4296 4.29751 60.7198 3.04335 61.764C1.8 62.7602 0.896661 64.1179 0.458071 65.6496C0.0194805 67.1813 0.0673032 68.8114 0.594907 70.3147C1.12251 71.818 2.10387 73.1205 3.40347 74.0421C4.70307 74.9638 6.25675 75.4592 7.84999 75.4599C8.33983 75.4585 8.82831 75.4079 9.30808 75.3091C12.4084 74.7335 15.4763 73.9951 18.499 73.0968L18.7806 74.4945C19.1595 76.3955 20.2448 78.0822 21.8178 79.2148C23.3908 80.3474 25.3346 80.8418 27.2576 80.5984C45.0059 78.3861 68.6871 76.7772 95.7571 75.9325C96.5064 75.9017 97.2476 75.7663 97.9594 75.5303C99.7217 76.0358 101.546 76.293 103.379 76.2945C105.775 76.2712 108.152 75.8638 110.418 75.0878C111.217 75.3661 112.056 75.5089 112.902 75.5102H113.043C121.751 75.3493 130.741 75.2688 139.741 75.2688C145.453 75.2688 151.235 75.2688 157.057 75.3694C185.012 75.6811 232.475 78.014 274.146 83.5548C274.479 83.5945 274.815 83.6146 275.151 83.6151C276.68 83.6136 278.174 83.1566 279.442 82.3022C280.71 81.4479 281.695 80.235 282.271 78.8185L285.237 71.5482C285.588 70.6583 285.766 69.7094 285.76 68.7527C289.782 67.003 294.478 63.3528 298.32 55.811C301.678 49.4457 299.557 43.9654 296.711 41.2C296.179 40.6977 295.58 40.2714 294.931 39.933Z" fill="white"/>
<path d="M195.249 56.364L204.108 56.6758L209.075 44.0558L216.345 43.181C215.104 46.046 214.059 48.9925 213.218 51.9999C213.056 52.7639 213.076 53.5554 213.277 54.3102C213.478 55.065 213.854 55.7617 214.374 56.3439C215.42 57.497 217.133 58.0769 219.513 58.0836C222.564 58.0251 225.47 56.7723 227.608 54.5942C227.673 55.5788 228.078 56.5102 228.754 57.2288C229.351 57.783 230.052 58.2124 230.817 58.4922C231.582 58.7719 232.395 58.8962 233.209 58.8579C236.95 58.8579 240.332 57.0445 243.355 53.4177C243.125 54.2328 243.087 55.0901 243.244 55.9223C243.401 56.7546 243.749 57.5391 244.26 58.2143C244.777 58.7132 245.394 59.0973 246.07 59.3416C246.745 59.586 247.465 59.685 248.182 59.6322C249.904 59.6364 251.593 59.1592 253.059 58.2545C253.843 57.7474 254.515 57.0853 255.034 56.3088C255.553 55.5324 255.907 54.658 256.076 53.7395C255.393 53.9762 254.676 54.0986 253.954 54.1015C252.254 54.1015 251.51 53.4479 251.731 52.1406C251.847 51.4463 252.053 50.7702 252.345 50.1295L261.184 28.0069L250.897 28.8717L251.128 30.8124L244.16 48.239C242.47 51.6177 240.529 53.3172 238.347 53.3172C237.121 53.3172 236.638 52.4725 236.919 50.7932C237.003 50.2923 237.144 49.8029 237.342 49.3351L245.879 27.9466L235.572 28.8717L235.793 30.8828L228.835 48.2994C228.545 49.023 228.293 49.7615 228.08 50.5116C227.849 50.7831 227.618 51.0245 227.387 51.2557C226.969 51.6889 226.467 52.0319 225.912 52.2636C225.357 52.4954 224.76 52.611 224.159 52.6032C222.51 52.6032 221.816 51.7987 222.077 50.1898C222.269 49.3594 222.545 48.5507 222.902 47.7765L225.204 42.2559L230.846 28.0069L221.172 28.8717L221.363 30.8828L218.075 38.7866L210.734 39.6514L215.45 27.9566L205.143 28.8717L205.385 30.8024L195.249 56.364Z" fill="#002169"/>
<path d="M192.775 23.8438C195.962 22.5969 197.682 21.4103 199.13 19.4897C201.403 16.473 200.136 15.0652 200.136 15.0652C197.712 19.7109 191.89 21.4807 189.165 20.9377C186.229 20.3545 188.481 17.921 188.481 17.921C188.481 17.921 182.83 16.5735 181.382 20.3746C179.763 24.6885 187.013 26.1164 192.775 23.8438Z" fill="#002169"/>
<path d="M92.3885 63.8355C64.9162 65.3438 41.4864 67.7974 25.9201 70.9449L26.3324 72.956C44.4327 70.6935 68.4659 69.0745 95.5359 68.2298C94.0361 67.1384 92.9314 65.5891 92.3885 63.8154" fill="#EA0029"/>
<path d="M118.171 62.7293C116.784 64.7657 114.998 66.4999 112.922 67.8276C127.151 67.5661 142.024 67.5159 157.167 67.6868C189.567 68.0388 236.759 70.8242 275.181 75.9325L278.128 68.6622C248.041 64.7304 201.433 62.136 157.077 62.136C143.783 62.136 130.721 62.3472 118.181 62.7293" fill="#EA0029"/>
<path d="M117.186 60.2154C120.022 54.7451 127.302 39.7419 129.504 34.9353L134.703 34.0906L129.906 46.3787C129.404 47.59 129.03 48.8504 128.79 50.1396C128.388 52.5529 128.74 54.2926 129.796 55.3786C130.387 55.9393 131.085 56.3745 131.849 56.658C132.613 56.9414 133.427 57.0672 134.24 57.0277C136.001 57.0502 137.725 56.5191 139.168 55.5093C140.658 54.464 141.7 52.8947 142.084 51.115C141.379 51.3595 140.638 51.4819 139.892 51.477C139.289 51.5265 138.687 51.3628 138.192 51.0144C138.008 50.8211 137.878 50.5829 137.814 50.3236C137.751 50.0642 137.756 49.7928 137.83 49.5362C137.954 48.8474 138.15 48.1733 138.414 47.5251L146.116 28.0069H137.177L127.282 29.6963C126.813 29.7543 126.367 29.9318 125.987 30.2118C125.606 30.4917 125.304 30.8648 125.11 31.2951C125.019 31.4962 116.18 51.6781 112.44 57.44C108.417 63.6243 98.2409 64.3785 94.8823 57.8221C93.9471 60.145 92.9416 64.8611 98.4521 67.6365C104.968 70.6532 113.757 66.8723 117.186 60.2858" fill="#002169"/>
<path d="M115.346 25.1913C116.7 25.1897 118.014 24.7328 119.076 23.8941C120.141 23.1254 120.863 21.9704 121.088 20.6763C121.207 20.1012 121.186 19.5058 121.027 18.9405C120.867 18.3752 120.574 17.8565 120.172 17.4283C119.751 16.9783 119.237 16.6249 118.666 16.3923C118.095 16.1597 117.48 16.0534 116.864 16.0808C115.505 16.0739 114.188 16.5557 113.154 17.4383C112.127 18.2396 111.436 19.3936 111.213 20.6763C111.097 21.2358 111.116 21.8149 111.268 22.3657C111.42 22.9165 111.701 23.4232 112.088 23.8438C112.503 24.2866 113.009 24.6337 113.572 24.8612C114.134 25.0887 114.74 25.191 115.346 25.1611" fill="#002169"/>
<path d="M106.245 57.5808C108.007 57.6003 109.732 57.0733 111.183 56.0725C111.472 55.8701 111.744 55.6448 111.997 55.3987C108.93 54.9261 109.735 50.6927 109.835 50.0994C109.958 49.4103 110.154 48.7361 110.418 48.0882L118.342 27.9768L108.005 28.8717L108.256 30.8024L101.861 46.972C101.36 48.1803 100.986 49.4373 100.745 50.7228C100.356 53.1362 100.691 54.8859 101.75 55.9719C102.351 56.5318 103.059 56.9632 103.832 57.2399C104.605 57.5165 105.426 57.6325 106.245 57.5808Z" fill="#002169"/>
<path d="M39.7065 34.1208C37.082 43.171 33.5725 61.6333 48.7567 61.4422C48.9779 61.4422 49.1891 61.4422 49.4103 61.4422C53.4326 61.2713 63.6995 59.2501 73.5441 34.0303C74.6906 32.2393 76.3522 30.8372 78.3105 30.008C79.4693 29.5928 80.6751 29.3226 81.9004 29.2036C83.1829 29.0234 84.4767 28.936 85.7718 28.9421C86.962 28.9302 88.1497 29.0551 89.3114 29.3142C92.1673 30.0315 93.5348 31.3924 93.4142 33.3968C93.3035 34.9957 92.5393 36.0817 90.669 37.4995C88.8514 38.8967 86.6161 39.6406 84.3238 39.6112H83.9618L87.8031 29.817L80.04 31.3957C79.4363 31.4938 78.8682 31.7463 78.3907 32.1286C77.9133 32.5109 77.5427 33.0101 77.3149 33.5778L66.6961 60.3461L74.801 58.335C75.4406 58.1841 76.0335 57.8789 76.5278 57.4459C77.0222 57.0129 77.4029 56.4654 77.6367 55.8512L82.7651 42.4771C83.7107 42.3822 84.6606 42.3352 85.6109 42.3363C89.4924 42.3363 91.3326 44.0961 91.1114 47.5854C91.0871 49.207 90.5601 50.7811 89.6031 52.0904C89.0401 52.8944 88.2855 53.5454 87.4076 53.9843C86.5297 54.4233 85.5562 54.6364 84.5752 54.6043C83.6711 54.539 82.7907 54.2851 81.9906 53.8591C81.1904 53.433 80.4883 52.8443 79.9294 52.1306C79.3261 54.4032 79.2658 57.3093 83.2579 58.3752C84.1035 58.5785 84.9733 58.6631 85.8422 58.6266C88.0224 58.6647 90.1835 58.2146 92.1673 57.3093C95.2778 55.9486 97.7297 53.4209 98.9951 50.2703C99.4462 49.1473 99.734 47.9655 99.8498 46.7609C99.9158 45.977 99.8166 45.188 99.5585 44.4449C99.3004 43.7018 98.8892 43.0211 98.3515 42.447C96.8875 41.0759 94.9933 40.2549 92.9918 40.1241C94.7889 39.5399 96.4269 38.5489 97.7783 37.228C98.79 36.2793 99.4255 34.9976 99.5683 33.618C99.5735 32.54 99.2864 31.4807 98.7375 30.5528C98.1886 29.625 97.3984 28.8633 96.451 28.3488C94.3091 27.0818 91.1617 26.2271 86.8779 26.217C83.0024 26.134 79.1416 26.719 75.4647 27.9466C81.106 6.08545 62.5733 4.73798 58.4001 20.8271C58.4001 20.8271 55.313 33.2158 64.8257 35.2169C61.3364 33.2661 63.1766 25.1612 63.1766 25.1612C66.7464 9.91668 75.2435 15.1054 69.391 30.0382C61.4269 50.4614 55.9666 53.7798 52.1857 54.3529C52.0549 54.3529 51.5522 54.3529 51.4215 54.3529C41.0942 53.7596 51.3511 27.2025 51.3511 27.2025C58.2795 11.415 63.2771 9.41389 66.2939 8.17704C63.2771 8.17704 50.9891 7.55359 41.5266 28.7209L34.4273 29.3343L42.4718 9.92674C42.4718 9.92674 29.5502 11.9379 28.786 12.0485C30.4251 13.3658 30.6664 15.0652 29.7916 17.2775C24.4419 31.3555 14.4164 57.7719 13.079 60.9294C11.8501 63.5534 10.0538 65.8717 7.81981 67.717C7.81981 67.717 15.8644 66.1584 18.2376 64.9416C20.6107 63.7249 23.5369 61.8746 24.5023 58.2847L32.4563 34.7443L39.7065 34.1208Z" fill="#002169"/>
<path d="M283.276 57.0277C281.698 57.6613 280.843 56.3741 281.054 55.0166C281.175 54.3235 281.381 53.6479 281.667 53.0055L291.271 27.9566L280.984 28.8717L281.215 30.8829L273.683 50.4915C271.994 53.8434 270.056 55.5194 267.871 55.5194C266.644 55.5194 266.161 54.735 266.423 53.1663C266.523 52.6106 266.675 52.0653 266.875 51.5373L275.926 27.9164L265.659 28.8717L265.93 30.7622L258.358 50.4915C257.86 51.7 257.49 52.957 257.252 54.2423C256.85 56.6557 257.185 58.4054 258.258 59.4914C258.855 60.0437 259.557 60.4714 260.322 60.7493C261.087 61.0273 261.9 61.15 262.712 61.1104C266.399 61.1104 269.751 59.3003 272.768 55.6803C272.567 59.3003 273.774 62.0254 277.474 62.5282C281.497 63.0813 287.047 60.8992 291.472 52.2211C293.04 49.2044 291.975 47.3742 291.301 46.7206C289.943 50.5619 285.871 55.9116 283.256 56.9775" fill="#002169"/>
<path d="M295.202 13.7881C292.417 18.816 285.428 21.169 282.361 20.5858C279.053 19.9623 281.607 17.3177 281.607 17.3177C281.607 17.3177 275.242 15.8697 273.563 20.0026C271.692 24.6483 279.867 26.1868 286.384 23.7332C289.994 22.3657 291.894 21.1891 293.594 18.9869C295.786 16.1311 295.202 13.7881 295.202 13.7881Z" fill="#002169"/>
<path d="M144.708 54.8959C146.227 56.3037 148.449 57.0076 151.355 57.0076C156.152 57.0076 162.738 54.5942 167.354 47.9575C167.121 48.6641 166.94 49.3866 166.811 50.1194C166.409 52.5328 166.744 54.2792 167.817 55.3585C168.412 55.9254 169.117 56.3657 169.888 56.6526C170.659 56.9395 171.48 57.0671 172.301 57.0277C176.029 57.0277 179.411 55.2144 182.448 51.5876C182.358 52.3051 182.419 53.0334 182.627 53.726C182.835 54.4186 183.184 55.0602 183.654 55.6099C184.171 56.1059 184.787 56.4883 185.46 56.7324C186.134 56.9766 186.851 57.0772 187.566 57.0277C189.293 57.0225 190.985 56.5387 192.453 55.63C193.239 55.1247 193.912 54.463 194.431 53.6863C194.95 52.9095 195.304 52.0343 195.47 51.115C194.778 51.312 194.066 51.4334 193.348 51.477C191.659 51.477 190.915 50.8234 191.136 49.5161C191.248 48.8222 191.451 48.1461 191.739 47.505L199.462 27.9566L189.155 28.8717L189.396 30.8125L183.252 46.3687C181.549 49.7608 179.609 51.4535 177.43 51.4468C176.203 51.4468 175.73 50.6021 176.002 48.9228C176.09 48.4219 176.235 47.9327 176.434 47.4647L184.127 27.9466L173.82 28.8717L174.061 30.8828L169.033 43.6134C166.523 46.69 163.299 49.1064 159.641 50.6524C158.417 51.2217 157.089 51.5364 155.74 51.5775C153.112 51.5775 152.066 49.9887 152.602 46.8111C152.695 46.2197 152.84 45.6376 153.035 45.0715C156.866 44.8618 160.558 43.5603 163.674 41.3207C165.135 40.3864 166.39 39.1632 167.362 37.7262C168.334 36.2892 169.002 34.6688 169.325 32.9644C169.493 32.2708 169.501 31.5479 169.348 30.8508C169.195 30.1537 168.884 29.5009 168.44 28.9421C167.575 27.9432 165.712 27.4438 162.849 27.4438C161.04 27.4573 159.251 27.8192 157.58 28.5097C154.131 29.8768 151.14 32.1916 148.952 35.1867C146.044 38.8928 144.083 43.2522 143.24 47.8871C142.697 51.1317 143.187 53.4781 144.708 54.9261M156.685 36.8258C159.185 32.6828 161.424 30.5711 163.402 30.4907C164.408 30.4907 164.83 31.1845 164.599 32.5722C164.141 35.2097 162.775 37.6039 160.737 39.3397C158.962 40.9807 156.618 41.8677 154.201 41.8134C154.893 40.0736 155.723 38.3922 156.685 36.7856" fill="#002169"/>
</svg>
